<svg xmlns="http://www.w3.org/2000/svg" viewBox="0 0 930 1130" width="93" height="113" role="img" aria-label="SeoScrub">
  <path fill="#3ca5b1" fill-rule="evenodd" d="M 439.500 21.500 C 438.950 21.689, 436.434 22.120, 433.908 22.459 C 431.216 22.820, 427.118 24.491, 424.003 26.498 C 421.081 28.381, 416.037 30.817, 412.795 31.912 C 406.562 34.017, 399.493 38.645, 391.902 45.589 C 388.354 48.835, 385.993 50.067, 381.554 50.989 C 377.574 51.815, 374.680 53.187, 372.152 55.447 C 367.694 59.432, 365.582 60.542, 360.820 61.401 C 358.756 61.773, 355.085 63.763, 352.461 65.931 C 349.480 68.394, 345.552 70.422, 341.641 71.516 C 337.809 72.588, 334.131 74.468, 331.861 76.515 C 329.859 78.319, 327.384 80.039, 326.361 80.338 C 325.337 80.637, 322.620 81.366, 320.322 81.960 C 318.023 82.553, 314.269 84.605, 311.978 86.519 C 309.687 88.433, 305.432 90.691, 302.523 91.536 C 299.613 92.382, 295.250 94.619, 292.826 96.507 C 290.403 98.396, 286.444 100.638, 284.030 101.489 C 278.386 103.481, 264.379 112.459, 260.497 116.573 C 258.266 118.938, 255.993 120.067, 251.649 120.969 C 247.573 121.815, 244.699 123.170, 242.152 125.447 C 237.549 129.561, 235.516 130.600, 230.408 131.445 C 227.809 131.875, 224.586 133.552, 221.579 136.036 C 217.418 139.474, 211.865 141.977, 208.359 141.994 C 207.731 141.997, 205.043 143.797, 202.384 145.994 C 199.568 148.321, 195.282 150.648, 192.119 151.568 C 189.132 152.436, 184.655 154.699, 182.171 156.596 C 179.686 158.493, 175.294 160.731, 172.409 161.569 C 169.524 162.408, 165.052 164.707, 162.470 166.679 C 159.888 168.650, 155.710 170.885, 153.186 171.644 C 148.361 173.097, 133.050 182.745, 130.810 185.745 C 128.484 188.861, 126.406 189.975, 121.012 190.998 C 117.063 191.747, 114.650 192.990, 111.490 195.903 C 108.315 198.829, 105.841 200.099, 101.600 200.979 C 97.478 201.835, 94.717 203.216, 91.418 206.071 C 88.928 208.226, 85.678 210.237, 84.195 210.540 C 76.912 212.029, 74.180 213.203, 71.503 215.996 C 69.588 217.996, 66.337 219.708, 62.011 220.997 C 53.310 223.588, 40.944 234.269, 26.782 251.425 C 21.905 257.334, 21.479 258.630, 20.587 270.295 C 20.163 275.839, 19.394 278.181, 16.410 283.015 L 12.753 288.940 11.895 337.220 C 10.990 388.174, 11.585 474.247, 12.966 492.074 C 13.675 501.230, 14.206 503.396, 16.927 508.217 C 18.656 511.280, 20.494 516.392, 21.013 519.578 C 21.756 524.147, 22.697 526.129, 25.466 528.965 C 27.396 530.942, 30.106 535.471, 31.487 539.030 C 34.685 547.269, 44.678 557.059, 52.500 559.616 C 61.073 562.418, 64.360 567.502, 63.976 577.362 C 63.715 584.062, 63.915 585, 65.606 585 C 66.489 585, 68.548 583.875, 70.182 582.500 C 75.379 578.128, 85.349 579.366, 93.250 585.366 C 95.037 586.723, 98.888 588.738, 101.808 589.843 C 104.727 590.948, 109.029 593.616, 111.368 595.772 C 114.793 598.929, 116.665 599.830, 120.978 600.403 C 125.502 601.003, 126.895 601.727, 129.945 605.063 C 133.571 609.030, 138.022 611, 143.359 611 C 145.434 611, 147.247 612.111, 149.893 615.006 C 153.567 619.025, 158.004 621, 163.359 621 C 165.434 621, 167.247 622.111, 169.893 625.006 C 173.567 629.025, 178.004 631, 183.359 631 C 185.407 631, 187.274 632.116, 189.866 634.892 C 197.965 643.565, 206.298 649.339, 212.272 650.418 C 214.657 650.849, 217.827 652.682, 220.891 655.403 C 224.829 658.901, 226.730 659.839, 231.036 660.410 C 235.496 661.002, 236.906 661.738, 239.945 665.063 C 243.570 669.028, 248.022 671, 253.352 671 C 255.445 671, 257.333 672.187, 260.358 675.406 C 262.636 677.829, 265.850 680.483, 267.500 681.304 C 269.150 682.124, 272.908 684.417, 275.850 686.398 C 279.825 689.074, 282.268 690.006, 285.350 690.024 C 292.845 690.067, 297.197 691.640, 300.449 695.483 C 303.421 698.994, 308.715 702.408, 322 709.380 C 325.575 711.256, 329.510 714.167, 330.744 715.847 C 333.015 718.940, 337.967 720.984, 343.216 720.994 C 345.240 720.999, 347.709 722.778, 352.918 727.987 C 364.010 739.079, 363.712 742.527, 350.551 755.365 C 340.968 764.714, 340 766.571, 340 775.597 C 340 787.922, 343.134 791, 355.681 791 C 367.017 791, 370.974 787.589, 370.994 777.801 C 371.003 773.453, 385.250 759.472, 390.590 758.569 C 397.424 757.415, 409.973 761.648, 413.961 766.452 C 414.676 767.315, 417.788 768.755, 420.876 769.652 C 424.922 770.829, 427.478 772.365, 430.023 775.148 C 433.578 779.038, 438.050 781, 443.359 781 C 445.434 781, 447.247 782.111, 449.893 785.006 C 453.565 789.023, 458.004 791, 463.352 791 C 465.445 791, 467.333 792.187, 470.358 795.406 C 472.636 797.829, 476.075 800.582, 478 801.524 C 479.925 802.466, 482.907 804.289, 484.628 805.576 C 486.348 806.862, 490.031 808.780, 492.811 809.836 C 495.592 810.893, 499.873 813.401, 502.324 815.409 C 511.252 822.725, 523.524 822.732, 530.626 815.424 C 533.688 812.274, 535.730 811, 537.719 811 C 542.997 811, 547.451 809.006, 551.107 805.006 C 553.753 802.111, 555.566 801, 557.641 801 C 563.935 801, 567.132 799.104, 575.985 790.124 C 584.132 781.860, 585.218 781.096, 589.667 780.499 C 596.612 779.567, 596.301 779.770, 602.239 772.319 C 610.876 761.480, 610.500 762.928, 610.500 740.500 C 610.500 723.498, 610.243 720.031, 608.786 717.370 C 606.641 713.452, 596.094 705.089, 588.361 701.174 C 585.138 699.542, 581.490 696.832, 580.256 695.152 C 577.962 692.029, 573.026 690.016, 567.634 690.006 C 565.571 690.002, 563.744 688.879, 561.107 685.994 C 557.433 681.975, 552.996 680, 547.641 680 C 545.566 680, 543.753 678.889, 541.107 675.994 C 537.433 671.975, 532.996 670, 527.641 670 C 525.566 670, 523.753 668.889, 521.107 665.994 C 517.457 662.001, 512.997 660, 507.746 660 C 505.585 660, 503.027 658.020, 496.058 650.950 C 487.185 641.949, 483.933 640, 477.792 640 C 475.623 640, 472.149 637.075, 460.652 625.567 C 444.250 609.150, 444.617 609.329, 429.466 610.325 C 417.019 611.142, 415.735 610.610, 405.123 600.227 C 396.239 591.536, 395.718 591.195, 390.253 590.512 C 385.370 589.902, 384.099 589.267, 381.018 585.897 C 377.426 581.966, 372.964 580, 367.641 580 C 365.566 580, 363.753 578.889, 361.107 575.994 C 357.433 571.975, 352.996 570, 347.641 570 C 345.566 570, 343.753 568.889, 341.107 565.994 C 337.452 561.996, 332.997 560, 327.726 560 C 325.734 560, 323.581 558.644, 320.185 555.250 C 313.275 548.346, 305.218 542.873, 299.500 541.200 C 296.572 540.343, 292.799 538.180, 290.396 535.982 C 286.145 532.093, 285.122 531.619, 278.635 530.520 C 275.945 530.065, 273.438 528.553, 270.391 525.549 C 266.602 521.814, 265.241 521.136, 260.301 520.518 C 255.365 519.902, 254.106 519.275, 251.018 515.897 C 247.426 511.966, 242.964 510, 237.641 510 C 235.566 510, 233.753 508.889, 231.107 505.994 C 227.483 502.029, 222.998 500, 217.857 500 C 215.870 500, 212.848 497.729, 205.851 490.977 C 200.708 486.015, 195.600 481.766, 194.500 481.535 C 193.400 481.304, 190.768 480.836, 188.651 480.494 C 185.890 480.048, 183.605 478.642, 180.575 475.523 C 177.074 471.921, 175.503 471.064, 171.424 470.527 C 162.189 469.312, 161.767 468.889, 160.497 459.576 C 159.941 455.500, 159.065 453.913, 155.413 450.363 C 152.986 448.004, 150.982 445.158, 150.960 444.037 C 150.938 442.917, 150.920 423.325, 150.920 400.500 C 150.920 377.675, 150.938 358.067, 150.960 356.928 C 151.027 353.434, 184.168 321.001, 187.678 320.994 C 193.166 320.984, 197.918 318.974, 200.519 315.564 C 203.119 312.155, 205.929 310.633, 211.739 309.486 C 215.204 308.801, 222.374 303.451, 230.145 295.750 C 233.560 292.366, 235.740 291, 237.726 291 C 242.997 291, 247.452 289.004, 251.107 285.006 C 253.753 282.111, 255.566 281, 257.641 281 C 262.996 281, 267.433 279.025, 271.107 275.006 C 273.753 272.111, 275.566 271, 277.641 271 C 282.996 271, 287.433 269.025, 291.107 265.006 C 293.753 262.111, 295.566 261, 297.641 261 C 302.964 261, 307.426 259.034, 311.018 255.103 C 314.106 251.725, 315.365 251.098, 320.301 250.482 C 325.250 249.863, 326.600 249.188, 330.423 245.419 C 333.419 242.465, 336.293 240.703, 339.385 239.925 C 341.887 239.295, 346.247 237.054, 349.073 234.946 C 351.898 232.838, 355.625 230.807, 357.355 230.434 C 360.888 229.672, 365.839 227.122, 370.901 223.458 C 372.772 222.104, 376.069 220.520, 378.228 219.939 C 383.282 218.578, 394.189 211.457, 400.207 205.589 C 403.528 202.350, 405.737 201, 407.713 201 C 412.997 201, 417.450 199.007, 421.107 195.006 C 423.744 192.121, 425.571 190.998, 427.634 190.994 C 433.225 190.984, 437.909 188.986, 440.593 185.467 C 442.251 183.293, 444.571 181.671, 446.862 181.084 C 449.639 180.372, 483.016 180.244, 494.149 180.902 C 495.056 180.956, 500.006 185.048, 505.149 189.996 C 512.234 196.811, 515.348 199.134, 518 199.580 C 524.916 200.743, 527.883 202.157, 530.439 205.510 C 533.077 208.968, 537.799 210.983, 543.287 210.994 C 545.264 210.998, 547.322 212.284, 550.363 215.413 C 553.928 219.080, 555.483 219.935, 559.576 220.473 C 568.811 221.688, 569.233 222.111, 570.503 231.424 C 571.059 235.500, 571.935 237.087, 575.587 240.637 C 578.132 243.110, 580.034 245.894, 580.080 247.213 C 580.123 248.471, 580.090 265.593, 580.006 285.262 C 579.839 324.295, 580.145 326.990, 585.034 329.517 C 591.633 332.930, 594.708 331.560, 605.768 320.274 C 612.229 313.681, 615.290 311.346, 619.776 309.588 C 626.624 306.904, 633.718 302.100, 639.612 296.154 C 644.143 291.583, 648.119 290.067, 655.685 290.024 C 661.039 289.993, 664.485 288.659, 668.645 285.007 C 675.837 278.692, 685.393 278.893, 690.405 285.464 C 693.091 288.986, 697.773 290.984, 703.366 290.994 C 705.438 290.998, 707.263 292.129, 709.961 295.080 C 713.609 299.072, 718.902 302.506, 732 309.380 C 735.575 311.256, 739.510 314.167, 740.744 315.847 C 743.010 318.933, 747.965 320.984, 753.183 320.994 C 755.142 320.998, 757.673 322.780, 762.560 327.596 C 769.612 334.545, 770.929 337.391, 770.976 345.782 C 771.003 350.668, 772.891 355.837, 775.411 357.927 C 780.096 361.812, 780.281 363.429, 780.081 398.614 C 779.859 437.561, 779.821 437.360, 788.176 441.581 C 791.104 443.060, 794.550 445.091, 795.833 446.094 C 797.116 447.098, 800.679 448.859, 803.750 450.008 C 806.822 451.157, 810.984 453.403, 813 455 C 815.016 456.597, 819.197 458.850, 822.291 460.008 C 825.385 461.165, 828.984 463.380, 830.287 464.929 C 833.340 468.557, 835.401 469.585, 841.363 470.450 C 845.320 471.025, 847.012 471.965, 850.439 475.491 C 853.951 479.104, 855.471 479.926, 859.576 480.433 C 864.461 481.037, 866.582 481.629, 872.650 484.087 C 875.474 485.231, 876.419 485.085, 881.775 482.681 C 885.061 481.207, 888.961 480, 890.441 480 C 895.118 480, 903.938 472.603, 913.279 460.846 C 919.585 452.908, 919.358 455.121, 919.734 398 C 920.264 317.641, 919.134 277.932, 916.216 274.317 C 912.908 270.220, 910.047 263.923, 910.022 260.684 C 909.993 256.994, 908.483 254.277, 904.067 249.968 C 902.076 248.026, 899.907 244.632, 899.246 242.427 C 897.780 237.534, 893.974 233.863, 888 231.579 C 885.525 230.633, 881.475 227.948, 879 225.612 C 872.757 219.720, 864.624 214.471, 857.316 211.616 C 853.915 210.287, 849.415 207.850, 847.316 206.200 C 845.217 204.550, 841.025 202.487, 838 201.617 C 834.975 200.746, 830.551 198.472, 828.169 196.564 C 825.787 194.656, 821.442 192.398, 818.513 191.547 C 815.584 190.695, 811.313 188.433, 809.022 186.519 C 806.731 184.605, 802.977 182.565, 800.678 181.985 C 794.516 180.431, 792.630 179.492, 788.637 175.986 C 786.463 174.078, 782.744 172.221, 779.284 171.318 C 775.667 170.373, 772.193 168.600, 769.901 166.530 C 766.500 163.457, 763.361 162.032, 756.805 160.584 C 755.322 160.257, 752.072 158.226, 749.582 156.071 C 746.252 153.189, 743.529 151.836, 739.281 150.954 C 735.053 150.077, 732.701 148.914, 730.503 146.614 C 725.508 141.388, 714.332 134.007, 708.244 131.912 C 705.088 130.826, 700.768 128.541, 698.644 126.834 C 696.520 125.127, 691.990 122.755, 688.578 121.563 C 685.166 120.371, 680.603 117.989, 678.437 116.271 C 676.272 114.554, 671.862 112.393, 668.638 111.471 C 664.991 110.427, 661.321 108.478, 658.922 106.310 C 656.412 104.043, 653.055 102.302, 649.304 101.323 C 645.668 100.373, 642.197 98.604, 639.901 96.530 C 636.500 93.457, 633.361 92.032, 626.805 90.584 C 625.322 90.257, 622.072 88.226, 619.582 86.071 C 616.277 83.210, 613.523 81.835, 609.375 80.974 C 605.045 80.075, 602.602 78.805, 599.098 75.630 C 592.642 69.781, 584.078 64.217, 577.940 61.885 C 575.066 60.793, 570.866 58.389, 568.607 56.544 C 566.348 54.698, 562.014 52.469, 558.975 51.589 C 555.707 50.642, 551.475 48.357, 548.616 45.994 C 545.957 43.797, 543.269 41.997, 542.641 41.994 C 539.083 41.977, 533.358 39.415, 529.903 36.294 C 527.051 33.717, 524.215 32.320, 519.735 31.285 C 515.516 30.310, 512.134 28.712, 509.197 26.305 C 506.817 24.355, 503.212 22.375, 501.185 21.904 C 497.759 21.108, 441.717 20.741, 439.500 21.500 M 410.500 317.474 C 408.300 318.829, 405.147 319.952, 403.493 319.969 C 397.945 320.026, 393.581 321.960, 389.893 325.994 C 387.256 328.879, 385.429 330.002, 383.366 330.006 C 377.778 330.016, 373.091 332.015, 370.411 335.527 C 368.579 337.930, 365.960 339.636, 361.747 341.173 C 358.426 342.383, 354.403 344.473, 352.808 345.815 C 351.212 347.158, 346.763 349.536, 342.920 351.099 C 330.374 356.205, 321.600 364.346, 320.618 371.791 C 320.092 375.777, 319.102 377.998, 316.604 380.791 C 309.357 388.898, 309.131 392.829, 315.500 400 C 318.491 403.368, 320 405.980, 320 407.790 C 320 417.538, 338.858 436.712, 351.600 439.921 C 354.894 440.750, 357.511 442.371, 360.467 445.412 C 364.156 449.208, 365.364 449.815, 370.511 450.458 C 375.646 451.100, 376.870 451.712, 380.511 455.458 C 384.157 459.209, 385.373 459.816, 390.535 460.461 C 395.654 461.101, 396.868 461.697, 399.982 465.103 C 403.574 469.034, 408.036 471, 413.359 471 C 415.430 471, 417.244 472.108, 419.866 474.975 C 424.030 479.529, 431.421 484.428, 441.500 489.316 C 445.609 491.309, 449.427 493.989, 450.744 495.807 C 453.018 498.944, 457.921 500.984, 463.216 500.994 C 466.586 501.001, 479.920 513.834, 480.143 517.284 C 480.221 518.503, 480.334 523.251, 480.393 527.835 C 480.555 540.445, 487.314 544.074, 496.997 536.750 C 499.360 534.962, 502.206 532.830, 503.322 532.012 C 508.013 528.570, 519.350 530.819, 526.226 536.556 C 529.117 538.968, 530.957 539.483, 540.455 540.535 C 545.719 541.119, 546.824 541.648, 549.982 545.103 C 553.574 549.034, 558.036 551, 563.359 551 C 565.418 551, 567.260 552.113, 569.866 554.930 C 575.458 560.976, 585.663 567.991, 591.821 570.023 C 595.608 571.272, 598.355 573.002, 600.440 575.450 C 603.524 579.070, 608.015 581, 613.359 581 C 615.434 581, 617.247 582.111, 619.893 585.006 C 623.567 589.025, 628.004 591, 633.359 591 C 635.434 591, 637.247 592.111, 639.893 595.006 C 643.548 599.004, 648.003 601, 653.274 601 C 655.264 601, 657.425 602.359, 660.827 605.750 C 667.959 612.860, 676.096 618.871, 679.487 619.535 C 685.053 620.625, 687.908 622.191, 690.481 625.564 C 693.089 628.983, 697.836 630.984, 703.366 630.994 C 705.429 630.998, 707.256 632.121, 709.893 635.006 C 713.567 639.025, 718.004 641, 723.359 641 C 725.416 641, 727.262 642.113, 729.866 644.923 C 734.276 649.685, 747.092 658.282, 752.268 659.952 C 758.252 661.882, 768.699 672.853, 771.600 680.254 C 772.917 683.615, 774.840 687.296, 775.872 688.433 C 780.133 693.124, 780.174 693.582, 780.115 735.937 C 780.056 778.544, 780.045 778.680, 776.494 783.500 C 775.278 785.150, 773.066 788.904, 771.579 791.842 C 767.242 800.405, 757.200 809.609, 750.729 810.953 C 746.903 811.747, 744.269 813.124, 741.185 815.943 C 738.842 818.085, 734.855 820.543, 732.325 821.405 C 729.795 822.267, 726.325 824.037, 724.613 825.338 C 722.901 826.639, 719.925 828.488, 718 829.446 C 716.075 830.404, 712.636 833.171, 710.358 835.594 C 707.333 838.813, 705.445 840, 703.352 840 C 698.004 840, 693.565 841.977, 689.893 845.994 C 687.247 848.889, 685.434 850, 683.359 850 C 678.022 850, 673.571 851.970, 669.945 855.937 C 666.895 859.273, 665.502 859.997, 660.978 860.597 C 656.677 861.168, 654.792 862.073, 651.411 865.189 C 649.095 867.324, 644.373 870.178, 640.917 871.532 C 637.462 872.887, 633.704 874.840, 632.567 875.872 C 629.492 878.666, 626.624 879.933, 620.941 881.011 C 617.246 881.712, 614.583 883.077, 611.336 885.936 C 608.123 888.763, 605.333 890.204, 601.549 890.990 C 597.986 891.729, 594.902 893.248, 592.111 895.637 C 589.832 897.588, 585.741 899.998, 583.021 900.992 C 576.086 903.527, 566.577 909.653, 560.889 915.250 C 557.458 918.626, 555.255 920, 553.274 920 C 548.051 920, 543.560 921.983, 540.027 925.848 C 536.954 929.210, 535.734 929.803, 530.568 930.448 C 525.318 931.104, 524.151 931.689, 520.400 935.549 C 516.806 939.248, 515.362 940.016, 510.892 940.609 C 506.711 941.163, 504.769 942.094, 501.497 945.110 C 499.228 947.201, 495.151 949.859, 492.436 951.018 C 489.721 952.176, 485.237 954.678, 482.471 956.576 C 472.828 963.195, 456.718 962.489, 449.756 955.141 C 446.580 951.790, 445.245 951.136, 440.324 950.521 C 435.362 949.901, 434.110 949.279, 431.018 945.897 C 427.426 941.966, 422.964 940, 417.641 940 C 415.566 940, 413.753 938.889, 411.107 935.994 C 407.452 931.996, 402.997 930, 397.726 930 C 395.743 930, 393.547 928.628, 390.119 925.250 C 379.670 914.950, 375.610 912.279, 367.814 910.580 C 364.161 909.783, 352.061 897.698, 350.914 893.702 C 350.411 891.948, 350 887.893, 350 884.691 C 350 878.164, 349.183 876.146, 344.356 870.747 C 340.504 866.440, 340.713 868.319, 340.935 840 C 341.131 815.057, 340.453 812.230, 333.887 810.607 C 328.643 809.311, 325.267 810.542, 320.439 815.510 C 316.818 819.235, 315.364 820.015, 310.950 820.601 C 306.729 821.161, 304.805 822.121, 300.835 825.646 C 297.617 828.505, 295 830.002, 293.217 830.006 C 287.789 830.017, 283.066 832.047, 280.430 835.503 C 277.410 839.462, 276.673 839.761, 266.842 841.007 C 262.804 841.519, 257.114 842.607, 254.199 843.426 C 249.298 844.801, 248.429 844.768, 242.699 842.979 C 239.289 841.916, 233.820 840.766, 230.545 840.425 C 225.256 839.874, 224.192 839.369, 221.018 835.897 C 217.426 831.966, 212.964 830, 207.641 830 C 205.566 830, 203.753 828.889, 201.107 825.994 C 197.443 821.986, 192.997 820, 187.684 820 C 183.992 820, 151.050 787.585, 150.919 783.822 C 150.874 782.545, 150.908 763.159, 150.994 740.741 C 151.186 690.478, 151.505 691.932, 139.942 690.398 C 134.779 689.713, 134.151 689.285, 125.853 680.795 C 117.150 671.891, 113.960 670, 107.641 670 C 105.566 670, 103.753 668.889, 101.107 665.994 C 97.433 661.975, 92.996 660, 87.641 660 C 85.566 660, 83.753 658.889, 81.107 655.994 C 77.451 651.994, 72.997 650, 67.719 650 C 65.723 650, 63.677 648.716, 60.552 645.500 C 56.817 641.657, 55.618 641.010, 52.339 641.070 C 46.624 641.175, 45.983 641.597, 33.250 653.634 C 11.186 674.492, 11.651 671.874, 12.154 772.410 L 12.500 841.652 16.364 847.911 C 19.913 853.660, 20.291 854.979, 21.008 864.102 C 21.941 875.974, 21.978 876.034, 39.091 893.080 C 52.137 906.074, 64.984 915.862, 72.981 918.901 C 75.927 920.020, 80.114 922.364, 82.286 924.109 C 84.457 925.855, 88.923 928.120, 92.209 929.142 C 95.496 930.165, 99.935 932.501, 102.075 934.332 C 104.373 936.299, 108.375 938.332, 111.849 939.298 C 115.391 940.283, 119.430 942.353, 122 944.500 C 124.570 946.647, 128.609 948.717, 132.151 949.702 C 135.692 950.686, 139.631 952.704, 142.046 954.771 C 144.514 956.884, 148.246 958.776, 151.747 959.691 C 155.026 960.547, 158.879 962.443, 160.842 964.166 C 164.636 967.497, 166.564 968.443, 172.726 969.998 C 175.053 970.585, 178.973 972.813, 181.449 974.956 C 184.723 977.790, 187.488 979.167, 191.625 980.026 C 195.987 980.932, 198.372 982.181, 201.902 985.411 C 209.425 992.293, 216.477 996.928, 222.667 999.057 C 225.872 1000.160, 230.201 1002.434, 232.287 1004.110 C 234.373 1005.786, 238.773 1008.068, 242.065 1009.179 C 245.358 1010.291, 249.872 1012.722, 252.097 1014.581 C 254.322 1016.440, 258.023 1018.447, 260.322 1019.040 C 262.620 1019.634, 265.337 1020.363, 266.361 1020.662 C 267.384 1020.961, 269.956 1022.773, 272.077 1024.689 C 274.578 1026.948, 277.944 1028.697, 281.654 1029.666 C 285.433 1030.653, 288.821 1032.433, 291.634 1034.909 C 294.639 1037.554, 297.566 1039.032, 301.579 1039.930 C 305.645 1040.840, 308.437 1042.265, 311.382 1044.933 C 317.317 1050.309, 325.923 1055.726, 332.827 1058.432 C 336.125 1059.725, 340.823 1062.158, 343.269 1063.841 C 345.714 1065.523, 350.127 1067.816, 353.074 1068.936 C 356.022 1070.056, 360.352 1072.350, 362.695 1074.033 C 365.038 1075.716, 369.432 1077.944, 372.459 1078.986 C 375.485 1080.027, 380.032 1082.460, 382.563 1084.392 C 385.094 1086.325, 389.560 1088.602, 392.488 1089.454 C 395.417 1090.305, 399.701 1092.579, 402.009 1094.507 C 404.317 1096.436, 407.397 1098.276, 408.853 1098.597 C 415.203 1099.995, 418.245 1101.363, 422.020 1104.516 C 426.928 1108.617, 427.362 1108.761, 438.145 1109.854 C 444.978 1110.547, 447.929 1111.385, 452.264 1113.865 C 460.467 1118.559, 470.281 1118.427, 479.569 1113.500 C 484.836 1110.706, 487.308 1109.995, 491.833 1109.976 C 500.190 1109.941, 504.356 1108.662, 509.295 1104.615 C 512.338 1102.121, 515.453 1100.641, 519.274 1099.874 C 523.210 1099.083, 526.189 1097.635, 529.493 1094.905 C 533.583 1091.525, 539.150 1089.023, 542.619 1089.006 C 543.235 1089.003, 545.935 1087.259, 548.619 1085.132 C 551.376 1082.947, 555.962 1080.553, 559.156 1079.631 C 562.338 1078.713, 566.644 1076.468, 569 1074.500 C 571.340 1072.545, 575.682 1070.276, 578.841 1069.358 C 581.950 1068.454, 586.486 1066.194, 588.920 1064.335 C 591.354 1062.476, 595.680 1060.277, 598.533 1059.447 C 601.386 1058.618, 606.047 1056.203, 608.892 1054.080 C 611.737 1051.958, 615.963 1049.731, 618.282 1049.132 C 620.602 1048.534, 623.691 1047.246, 625.146 1046.272 C 632.234 1041.524, 637.797 1037.266, 640.703 1034.362 C 643.001 1032.065, 645.499 1030.831, 649.551 1029.989 C 653.425 1029.185, 656.342 1027.793, 658.848 1025.553 C 663.451 1021.439, 665.484 1020.400, 670.592 1019.555 C 673.200 1019.123, 676.420 1017.444, 679.466 1014.927 C 682.095 1012.754, 685.429 1010.719, 686.873 1010.405 C 692.619 1009.157, 695.240 1007.938, 699.282 1004.633 C 701.796 1002.577, 705.812 1000.582, 709.221 999.694 C 712.875 998.743, 716.480 996.889, 719.195 994.565 C 721.550 992.549, 725.764 990.252, 728.642 989.416 C 731.500 988.585, 735.787 986.344, 738.169 984.436 C 740.551 982.528, 744.975 980.254, 748 979.383 C 751.025 978.513, 755.075 976.565, 757 975.055 C 761.099 971.839, 765.467 969.528, 769.073 968.666 C 772.357 967.881, 785.722 959.060, 789 955.514 C 792.038 952.228, 795.329 950.479, 800.096 949.617 C 802.081 949.258, 806.281 946.957, 809.467 944.483 C 812.642 942.018, 815.749 939.997, 816.370 939.994 C 819.748 939.978, 825.379 937.525, 829.014 934.488 C 831.285 932.591, 835.023 930.553, 837.322 929.960 C 839.620 929.366, 842.277 928.656, 843.227 928.380 C 844.178 928.105, 846.797 926.340, 849.049 924.459 C 851.301 922.578, 855.023 920.553, 857.322 919.960 C 864.649 918.068, 865.071 917.876, 868.454 914.906 C 870.282 913.301, 874.415 910.823, 877.639 909.399 C 889.692 904.075, 906.329 887.590, 909.558 877.773 C 910.512 874.873, 912.564 870.638, 914.117 868.363 C 919.450 860.549, 919.354 862.876, 919.285 743.500 C 919.215 623.856, 919.161 622.528, 914.020 613.526 C 912.441 610.761, 910.221 606.011, 909.085 602.968 C 905.280 592.778, 887.249 574.572, 877.877 571.459 C 868.167 568.234, 859 558.220, 859 550.837 C 859 548.805, 858.293 546.436, 857.429 545.571 C 855.487 543.630, 856.012 543.540, 852 546.500 C 847.248 550.006, 843.677 549.744, 839.517 545.583 C 835.977 542.044, 835.034 541.602, 828.761 540.544 C 826.476 540.159, 823.246 538.377, 820.456 535.962 C 817.945 533.789, 814.678 531.763, 813.195 531.460 C 805.328 529.852, 803.082 528.796, 800.595 525.536 C 797.909 522.014, 793.227 520.016, 787.634 520.006 C 785.571 520.002, 783.744 518.879, 781.107 515.994 C 777.433 511.975, 772.996 510, 767.641 510 C 765.566 510, 763.753 508.889, 761.107 505.994 C 757.433 501.975, 752.996 500, 747.641 500 C 745.566 500, 743.753 498.889, 741.107 495.994 C 737.433 491.975, 732.996 490, 727.641 490 C 725.566 490, 723.753 488.889, 721.107 485.994 C 717.433 481.975, 712.996 480, 707.641 480 C 705.549 480, 703.739 478.873, 700.979 475.854 C 697.352 471.886, 692.458 468.730, 679.655 462.105 C 676.440 460.441, 671.913 457.331, 669.594 455.194 C 666.208 452.072, 664.325 451.168, 660.022 450.597 C 655.498 449.997, 654.105 449.273, 651.055 445.937 C 647.430 441.972, 642.978 440, 637.648 440 C 635.555 440, 633.667 438.813, 630.642 435.594 C 628.364 433.171, 624.925 430.404, 623 429.446 C 621.075 428.488, 618.107 426.645, 616.405 425.351 C 614.702 424.057, 610.695 422.099, 607.500 421 C 604.305 419.901, 600.239 417.894, 598.465 416.541 C 596.690 415.188, 592.730 412.971, 589.664 411.615 C 582.914 408.630, 571.500 397.552, 570.505 393.021 C 569.548 388.668, 571.594 383.547, 575.470 380.591 C 579.668 377.389, 581.426 372.374, 580.524 366.175 C 578.582 352.826, 571.604 354.031, 555.376 370.517 C 543.397 382.686, 537.023 383.963, 530.561 375.490 C 527.910 372.016, 523.199 370.016, 517.634 370.006 C 515.571 370.002, 513.744 368.879, 511.107 365.994 C 507.483 362.030, 502.998 360, 497.859 360 C 495.891 360, 492.929 357.814, 486.388 351.532 C 477.347 342.850, 475.378 341.631, 468.569 340.496 C 465.699 340.018, 463.539 338.673, 460.569 335.515 C 458.331 333.135, 455.150 330.517, 453.500 329.696 C 451.850 328.876, 448.176 326.640, 445.336 324.728 C 440.976 321.792, 438.952 321.137, 432.336 320.519 C 426.877 320.008, 423.260 319.060, 420.412 317.393 C 415.385 314.450, 415.409 314.450, 410.500 317.474"/>
</svg>
